<svg xmlns="http://www.w3.org/2000/svg" viewBox="0 0 512 512">
  <defs>
    <linearGradient id="grad1" x1="0%" y1="0%" x2="100%" y2="100%">
      <stop offset="0%" style="stop-color:#4f46e5;stop-opacity:1" />
      <stop offset="100%" style="stop-color:#818cf8;stop-opacity:1" />
    </linearGradient>
    <filter id="shadow" x="-20%" y="-20%" width="140%" height="140%">
      <feDropShadow dx="0" dy="8" stdDeviation="8" flood-opacity="0.2" />
    </filter>
  </defs>
  <rect width="512" height="512" rx="112" fill="url(#grad1)" />
  <g fill="#ffffff" filter="url(#shadow)">
    <path d="M144 368a48 48 0 1 1-96 0 48 48 0 0 1 96 0zm24-176c0-61.9-50.1-112-112-112v64c26.5 0 48 21.5 48 48v176h64V192zm112 0c0-123.7-100.3-224-224-224v64c88.4 0 160 71.6 160 160v176h64V192z" transform="translate(100, 50)" />
  </g>
</svg>
